<?xml version="1.0" encoding="iso-8859-1"?>
<!-- Generator: Adobe Illustrator 16.0.0, SVG Export Plug-In . SVG Version: 6.00 Build 0)  -->
<!DOCTYPE svg PUBLIC "-//W3C//DTD SVG 1.1//EN" "http://www.w3.org/Graphics/SVG/1.1/DTD/svg11.dtd">
<svg version="1.1" id="Capa_1" xmlns="http://www.w3.org/2000/svg" xmlns:xlink="http://www.w3.org/1999/xlink" x="0px" y="0px"
	 width="343.78px" height="343.78px" viewBox="0 0 343.78 343.78" style="enable-background:new 0 0 343.78 343.78;"
	 xml:space="preserve">
<g>
	<g>
		<g>
			<g>
				<path d="M283.793,180.897c-30.366-29.777-70.557-46.17-113.208-46.17c-43.216,0-83.797,16.781-114.265,47.258
					c-1.556,1.549-2.414,3.627-2.414,5.842c0,2.216,0.865,4.294,2.432,5.843l31.79,31.796c3.128,3.128,8.563,3.128,11.673-0.012
					c18.879-18.873,44.021-29.268,70.803-29.268c26.764,0,51.911,10.395,70.803,29.279c1.555,1.555,3.633,2.42,5.83,2.42
					c2.21,0,4.294-0.865,5.843-2.432l31.916-31.904c3.218-3.23,3.236-8.479,0.012-11.679L283.793,180.897z"/>
			</g>
		</g>
		<g>
			<g>
				<path d="M341.373,125.479l-1.255-0.967c-45.042-44.474-104.802-68.965-168.303-68.965c-64.065,0-124.233,24.884-169.407,70.061
					c-3.219,3.221-3.207,8.473,0.012,11.707l32.714,32.714c3.134,3.122,8.557,3.116,11.685-0.009
					c33.327-33.333,77.714-51.681,124.996-51.681c47.275,0,91.669,18.354,125.014,51.695c1.556,1.556,3.639,2.414,5.831,2.414
					c2.216,0,4.293-0.858,5.843-2.414l32.84-32.843c1.567-1.562,2.438-3.657,2.438-5.891
					C343.787,129.094,342.922,127.022,341.373,125.479z"/>
			</g>
		</g>
		<g>
			<g>
				<path d="M169.864,219.911c-16.585,0-32.504,5.488-47.3,16.279l-4.474,3.272l52.085,48.771l53.629-47.99l-4.167-3.387
					C218.797,236.16,198.459,219.911,169.864,219.911z"/>
			</g>
		</g>
	</g>
</g>
<g>
</g>
<g>
</g>
<g>
</g>
<g>
</g>
<g>
</g>
<g>
</g>
<g>
</g>
<g>
</g>
<g>
</g>
<g>
</g>
<g>
</g>
<g>
</g>
<g>
</g>
<g>
</g>
<g>
</g>
</svg>
